<svg width="134" height="128" viewBox="0 0 134 128" fill="none" xmlns="http://www.w3.org/2000/svg">
<path fill-rule="evenodd" clip-rule="evenodd" d="M64.0969 128C99.412 127.947 128 99.3096 128 63.9851C128 29.2347 99.5439 0.615238 65.5476 0.0102676C29.844 -0.624489 0.00927592 28.2559 2.79674e-06 63.2774C-0.0103007 99.3075 28.4499 128.051 64.0969 128ZM63.9928 3.10907C97.8984 3.09777 124.913 30.5587 124.903 65.0235C124.891 97.5614 97.1607 124.781 64.0175 124.788C30.252 124.795 3.09826 97.5049 3.09929 63.564C3.10135 30.4981 30.6775 3.12037 63.9928 3.10907ZM38.4031 35.2228C38.9574 37.0644 37.4057 37.7053 35.7561 37.8337C34.02 37.9673 32.2849 38.0977 30.2695 38.2507C36.9215 58.0062 43.4734 77.469 50.181 97.3848C50.6591 96.6052 50.8559 96.3854 50.9424 96.1286C54.6249 85.157 58.3279 74.1925 61.9166 63.1901C62.2443 62.1866 62.0815 60.8575 61.7229 59.8263C59.824 54.362 57.549 49.0169 55.884 43.487C54.7454 39.701 53.2349 37.2514 48.7457 37.6899C47.9812 37.7649 47.0477 36.1246 46.1915 35.2772C47.227 34.661 48.2553 33.527 49.3 33.5116C58.4414 33.3717 67.5845 33.3744 76.7258 33.5198C77.7747 33.5373 78.803 34.701 79.8385 35.3327C78.9318 36.1585 78.1498 37.3972 77.0895 37.7166C75.3884 38.2281 73.5019 38.1316 71.4659 38.3124L91.4021 97.433C94.422 87.433 97.2318 78.2506 99.9643 69.0446C102.402 60.8267 100.949 53.1521 96.5414 45.914C95.2164 43.7376 93.5885 41.6258 92.8373 39.2522C91.9842 36.5519 91.2753 33.4777 91.7277 30.7692C92.4953 26.1791 96.0283 23.8999 100.809 23.4634C74.6466 -0.741578 33.5337 7.92315 18.3845 34.2224C24.2162 33.9543 29.7842 33.602 35.3564 33.526C36.4094 33.5127 38.1558 34.4001 38.4031 35.2228ZM48.8271 115.308C48.7055 115.662 48.6983 116.057 48.6025 116.645C59.8776 119.761 70.9353 119.537 82.2526 115.735L64.9634 68.529C59.4304 84.5633 54.1241 99.933 48.8271 115.308ZM40.1145 113.174L14.0663 41.9432C2.31519 64.8252 11.2545 99.7368 40.1145 113.174ZM118.862 67.4033C119.688 56.5837 115.944 41.6032 112.711 39.5428C112.35 43.5229 112.601 47.9508 111.456 51.9853C108.759 61.4912 105.462 70.8318 102.287 80.1981C98.835 90.3788 95.2473 100.513 91.7184 110.668C108.299 100.871 117.41 86.41 118.862 67.4033Z" fill="#7B68EE"/>
<rect x="64" y="88" width="70" height="31" rx="4" fill="#333333"/>
<path d="M84.7255 110.259C83.3789 110.259 82.2198 109.986 81.2482 109.44C80.2823 108.889 79.538 108.111 79.0153 107.105C78.4925 106.094 78.2312 104.898 78.2312 103.517C78.2312 102.17 78.4925 100.989 79.0153 99.9716C79.538 98.9545 80.2738 98.1619 81.2227 97.5937C82.1772 97.0256 83.2965 96.7415 84.5806 96.7415C85.4442 96.7415 86.2482 96.8807 86.9925 97.1591C87.7425 97.4318 88.396 97.8438 88.9528 98.3949C89.5153 98.946 89.9528 99.6392 90.2653 100.474C90.5778 101.304 90.734 102.276 90.734 103.389V104.386H79.68V102.136H87.3164C87.3164 101.614 87.2028 101.151 86.9755 100.747C86.7482 100.344 86.4329 100.028 86.0295 99.8011C85.6317 99.5682 85.1687 99.4517 84.6403 99.4517C84.0891 99.4517 83.6005 99.5795 83.1744 99.8352C82.7539 100.085 82.4244 100.423 82.1857 100.849C81.9471 101.27 81.8249 101.739 81.8192 102.256V104.395C81.8192 105.043 81.9386 105.602 82.1772 106.074C82.4215 106.545 82.7653 106.909 83.2085 107.165C83.6516 107.42 84.1772 107.548 84.7852 107.548C85.1886 107.548 85.5579 107.491 85.8931 107.378C86.2283 107.264 86.5153 107.094 86.7539 106.866C86.9925 106.639 87.1744 106.361 87.2994 106.031L90.6573 106.253C90.4869 107.06 90.1374 107.764 89.609 108.366C89.0863 108.963 88.4102 109.429 87.5806 109.764C86.7567 110.094 85.805 110.259 84.7255 110.259Z" fill="white"/>
<path d="M96.734 102.435V110.003H93.1033V96.9119H96.5636V99.2216H96.717C97.0067 98.4602 97.4925 97.858 98.1744 97.4148C98.8562 96.9659 99.6829 96.7415 100.654 96.7415C101.564 96.7415 102.356 96.9403 103.032 97.3381C103.708 97.7358 104.234 98.304 104.609 99.0426C104.984 99.7756 105.172 100.651 105.172 101.668V110.003H101.541V102.315C101.547 101.514 101.342 100.889 100.927 100.44C100.512 99.9858 99.9414 99.7585 99.2141 99.7585C98.7255 99.7585 98.2937 99.8636 97.9187 100.074C97.5494 100.284 97.2596 100.591 97.0494 100.994C96.8448 101.392 96.7397 101.872 96.734 102.435Z" fill="white"/>
<path d="M119.769 96.9119L115.192 110.003H111.101L106.525 96.9119H110.36L113.078 106.278H113.215L115.925 96.9119H119.769Z" fill="white"/>
</svg>
